# xmcd CD database file
#
# Track frame offsets:
#	150
#	13920
#	35007
#	60917
#	76520
#	89545
#	110192
#	126587
#	158267
#	184697
#
# Disc length: 2671 seconds
#
# Revision: 7
# Processed by: cddbd v1.5.2PL0 Copyright (c) Steve Scherf et al.
# Submitted via: CDex 1.97
#
DISCID=780a6d0a
DTITLE=Johnny Copeland - Live in Australia
DYEAR=1997
DGENRE=Blues
TTITLE0=Further On Up the Road
TTITLE1=That's All Right
TTITLE2=Cut Off My Right Arm
TTITLE3=Excuses
TTITLE4=Wella Wella Baby
TTITLE5=Love Her With a Feeling
TTITLE6=Look on Yonder Wall
TTITLE7=Ain't Nobody's Business
TTITLE8=Nobody But You
TTITLE9=Learned my Lesson
EXTD=Updated to correct a few errors. YEAR: 1997
EXTT0=
EXTT1=
EXTT2=
EXTT3=
EXTT4=
EXTT5=
EXTT6=
EXTT7=
EXTT8=
EXTT9=
PLAYORDER=
